<svg width="50" height="50" viewBox="0 0 50 50" fill="none" xmlns="http://www.w3.org/2000/svg">
<path d="M21.8542 4.64587L11.4583 8.56254C9.06249 9.45837 7.10416 12.2917 7.10416 14.8334V30.3125C7.10416 32.7709 8.72916 36 10.7083 37.4792L19.6667 44.1667C22.6042 46.375 27.4375 46.375 30.375 44.1667L39.3333 37.4792C41.3125 36 42.9375 32.7709 42.9375 30.3125V14.8334C42.9375 12.2709 40.9792 9.43754 38.5833 8.54171L28.1875 4.64587C26.4167 4.00004 23.5833 4.00004 21.8542 4.64587Z" stroke="#006400" stroke-width="4" stroke-linecap="round" stroke-linejoin="round"/>
<path d="M25 26.0417C26.1051 26.0417 27.1649 25.6027 27.9463 24.8213C28.7277 24.0399 29.1667 22.9801 29.1667 21.875C29.1667 20.77 28.7277 19.7102 27.9463 18.9288C27.1649 18.1474 26.1051 17.7084 25 17.7084C23.8949 17.7084 22.8351 18.1474 22.0537 18.9288C21.2723 19.7102 20.8333 20.77 20.8333 21.875C20.8333 22.9801 21.2723 24.0399 22.0537 24.8213C22.8351 25.6027 23.8949 26.0417 25 26.0417ZM25 26.0417V32.2917" stroke="#006400" stroke-width="4" stroke-miterlimit="10" stroke-linecap="round" stroke-linejoin="round"/>
</svg>
